HIERARCHY
ROOT joint_0
{
	OFFSET 0.000000 0.000000 0.000000
	CHANNELS 6 Xposition Yposition Zposition Zrotation Yrotation Xrotation 
	JOINT joint_1
	{
		OFFSET -0.613770 -1.125488 108.300049
		CHANNELS 3 Zrotation Yrotation Xrotation
		JOINT joint_2
		{
			OFFSET -10.925537 -0.900513 98.259033
			CHANNELS 3 Zrotation Yrotation Xrotation
			JOINT joint_3
			{
				OFFSET -11.287842 0.313599 98.110962
				CHANNELS 3 Zrotation Yrotation Xrotation
				JOINT joint_4
				{
					OFFSET -2.124268 2.484680 136.491943
					CHANNELS 3 Zrotation Yrotation Xrotation
					JOINT joint_5
					{
						OFFSET 16.640869 1.801270 81.862061
						CHANNELS 3 Zrotation Yrotation Xrotation
						End Site
						{
							OFFSET 0.000000 0.000000 0.000000
						}
					}
				}
				JOINT joint_6
				{
					OFFSET 0.447998 -28.248108 77.258057
					CHANNELS 3 Zrotation Yrotation Xrotation
					JOINT joint_7
					{
						OFFSET 7.918701 -130.256348 -24.086060
						CHANNELS 3 Zrotation Yrotation Xrotation
						JOINT joint_8
						{
							OFFSET 62.431885 -29.384277 -258.572021
							CHANNELS 3 Zrotation Yrotation Xrotation
							JOINT joint_9
							{
								OFFSET 53.743164 -21.907532 -238.024963
								CHANNELS 3 Zrotation Yrotation Xrotation
								End Site
								{
									OFFSET 0.000000 0.000000 0.000000
								}
							}
						}
					}
				}
				JOINT joint_10
				{
					OFFSET -2.846924 31.052063 76.130981
					CHANNELS 3 Zrotation Yrotation Xrotation
					JOINT joint_11
					{
						OFFSET 9.073730 131.055603 -18.752930
						CHANNELS 3 Zrotation Yrotation Xrotation
						JOINT joint_12
						{
							OFFSET 52.981201 29.883301 -260.613037
							CHANNELS 3 Zrotation Yrotation Xrotation
							JOINT joint_13
							{
								OFFSET 62.237793 15.935547 -236.423035
								CHANNELS 3 Zrotation Yrotation Xrotation
								End Site
								{
									OFFSET 0.000000 0.000000 0.000000
								}
							}
						}
					}
				}
			}
		}
	}
	JOINT joint_14
	{
		OFFSET 22.046143 -72.816772 -98.122925
		CHANNELS 3 Zrotation Yrotation Xrotation
		JOINT joint_15
		{
			OFFSET -23.673828 -54.692932 -469.927032
			CHANNELS 3 Zrotation Yrotation Xrotation
			JOINT joint_16
			{
				OFFSET -34.875244 -46.505249 -395.890999
				CHANNELS 3 Zrotation Yrotation Xrotation
				JOINT joint_17
				{
					OFFSET 168.486328 14.224182 -74.182999
					CHANNELS 3 Zrotation Yrotation Xrotation
					End Site
					{
						OFFSET 0.000000 0.000000 0.000000
					}
				}
			}
		}
	}
	JOINT joint_18
	{
		OFFSET -1.731934 82.408569 -92.846924
		CHANNELS 3 Zrotation Yrotation Xrotation
		JOINT joint_19
		{
			OFFSET -6.908936 32.203369 -472.535034
			CHANNELS 3 Zrotation Yrotation Xrotation
			JOINT joint_20
			{
				OFFSET -13.963135 23.196533 -399.207993
				CHANNELS 3 Zrotation Yrotation Xrotation
				JOINT joint_21
				{
					OFFSET 168.417725 19.834229 -73.041004
					CHANNELS 3 Zrotation Yrotation Xrotation
					End Site
					{
						OFFSET 0.000000 0.000000 0.000000
					}
				}
			}
		}
	}
}
MOTION
Frames: 15
Frame Time: 0.016667
-2466.677490 985.657471 1060.230957 -0.223318 5.128075 -2.176296 1.809682 -1.812291 2.540191 1.509383 0.211717 -0.539418 1.605317 -0.379207 0.241187 -0.036642 1.690074 -0.039012 0.000000 0.000000 0.000000 0.896230 0.448299 -1.901349 0.415064 0.797034 2.425848 0.521020 -1.984554 1.528084 0.000000 0.000000 0.000000 2.851645 0.109027 -1.127526 -0.236953 -0.377190 -0.493798 -0.456022 -0.223742 -1.647290 0.000000 0.000000 0.000000 0.718219 -5.664687 6.352036 0.434663 -0.176302 0.328851 0.317814 1.036470 0.050954 0.000000 0.000000 0.000000 1.122991 -4.997219 0.772759 1.624515 1.635928 -0.875426 1.358612 -1.971873 0.819625 0.000000 0.000000 0.000000 
-2466.932617 985.514709 1060.239014 -0.235905 5.108763 -2.175457 1.814078 -1.816182 2.547096 1.513289 0.210485 -0.540294 1.609315 -0.378374 0.241122 -0.036305 1.693615 -0.041070 0.000000 0.000000 0.000000 0.886090 0.468023 -1.896679 0.411772 0.814962 2.421927 0.521767 -1.995298 1.527119 0.000000 0.000000 0.000000 2.845056 0.114846 -1.140459 -0.238094 -0.370862 -0.503275 -0.455828 -0.225260 -1.646183 0.000000 0.000000 0.000000 0.722145 -5.664879 6.359635 0.438340 -0.167977 0.329149 0.321333 1.045921 0.051684 0.000000 0.000000 0.000000 1.125671 -4.992548 0.781080 1.627415 1.638969 -0.876710 1.361842 -1.962575 0.819936 0.000000 0.000000 0.000000 
-2467.191895 985.372314 1060.245972 -0.248506 5.088464 -2.174425 1.818327 -1.818069 2.552566 1.517281 0.209721 -0.540208 1.613317 -0.377594 0.241312 -0.035928 1.696448 -0.043227 0.000000 0.000000 0.000000 0.875222 0.487820 -1.891888 0.408457 0.832820 2.417900 0.522618 -2.005972 1.526662 0.000000 0.000000 0.000000 2.837884 0.120556 -1.152959 -0.239205 -0.364519 -0.512749 -0.455284 -0.225741 -1.644059 0.000000 0.000000 0.000000 0.726323 -5.665399 6.367731 0.442078 -0.157378 0.327945 0.325075 1.055033 0.052541 0.000000 0.000000 0.000000 1.128206 -4.988034 0.789410 1.630344 1.644309 -0.878238 1.364911 -1.954200 0.820286 0.000000 0.000000 0.000000 
-2467.458984 985.227722 1060.251953 -0.261147 5.066917 -2.173700 1.822698 -1.816694 2.558712 1.521043 0.209350 -0.542238 1.617405 -0.377452 0.241987 -0.035793 1.700471 -0.044367 0.000000 0.000000 0.000000 0.864887 0.507797 -1.884978 0.404771 0.850816 2.412453 0.523583 -2.016558 1.526762 0.000000 0.000000 0.000000 2.829913 0.125544 -1.163766 -0.240506 -0.358627 -0.523031 -0.453786 -0.222563 -1.639399 0.000000 0.000000 0.000000 0.730669 -5.667334 6.377363 0.445485 -0.142054 0.324572 0.328903 1.063629 0.053478 0.000000 0.000000 0.000000 1.130486 -4.984494 0.798636 1.633385 1.653573 -0.880447 1.367753 -1.947485 0.820733 0.000000 0.000000 0.000000 
-2467.729980 985.083496 1060.258057 -0.274060 5.044631 -2.172870 1.827074 -1.814593 2.563717 1.525055 0.209655 -0.543055 1.621494 -0.375753 0.241772 -0.035723 1.704141 -0.045144 0.000000 0.000000 0.000000 0.854394 0.527472 -1.876634 0.400929 0.868367 2.406112 0.524577 -2.026720 1.527170 0.000000 0.000000 0.000000 2.821336 0.129799 -1.173867 -0.241813 -0.353323 -0.533339 -0.451685 -0.217871 -1.632925 0.000000 0.000000 0.000000 0.735214 -5.669795 6.387457 0.448891 -0.124856 0.320130 0.332781 1.072897 0.054379 0.000000 0.000000 0.000000 1.132826 -4.981159 0.808021 1.636628 1.664543 -0.883079 1.370687 -1.940784 0.821220 0.000000 0.000000 0.000000 
-2468.001221 984.947327 1060.264038 -0.286635 5.022320 -2.171380 1.831407 -1.811692 2.568963 1.528869 0.209437 -0.544827 1.625663 -0.375570 0.242948 -0.035631 1.710321 -0.046380 0.000000 0.000000 0.000000 0.843160 0.548698 -1.870718 0.396914 0.887529 2.400036 0.525982 -2.037575 1.529160 0.000000 0.000000 0.000000 2.812771 0.135839 -1.184380 -0.242954 -0.346269 -0.543249 -0.450245 -0.214231 -1.628604 0.000000 0.000000 0.000000 0.739714 -5.671876 6.395880 0.452212 -0.108333 0.316752 0.336507 1.082971 0.055147 0.000000 0.000000 0.000000 1.135133 -4.977477 0.816595 1.639752 1.674766 -0.886507 1.373532 -1.933834 0.821640 0.000000 0.000000 0.000000 
-2468.267334 984.823059 1060.270996 -0.298394 5.000274 -2.169070 1.834800 -1.810559 2.574534 1.531859 0.208721 -0.545319 1.628693 -0.374185 0.242838 -0.035523 1.719048 -0.048041 0.000000 0.000000 0.000000 0.833445 0.571030 -1.867398 0.392650 0.908293 2.394137 0.528267 -2.049546 1.534714 0.000000 0.000000 0.000000 2.807102 0.143644 -1.194476 -0.244060 -0.337831 -0.553007 -0.449780 -0.212260 -1.627432 0.000000 0.000000 0.000000 0.744243 -5.672755 6.401170 0.455625 -0.094184 0.316448 0.340219 1.093977 0.055829 0.000000 0.000000 0.000000 1.137580 -4.972237 0.823940 1.642624 1.681263 -0.890803 1.376471 -1.924087 0.821773 0.000000 0.000000 0.000000 
-2468.534668 984.706787 1060.279053 -0.310515 4.978100 -2.166086 1.838510 -1.808500 2.580374 1.534990 0.207353 -0.546824 1.632120 -0.373425 0.243920 -0.035278 1.728802 -0.050527 0.000000 0.000000 0.000000 0.822875 0.594597 -1.865700 0.388143 0.930265 2.387985 0.530871 -2.062268 1.541425 0.000000 0.000000 0.000000 2.801811 0.152619 -1.205279 -0.245033 -0.328334 -0.562316 -0.449783 -0.211056 -1.627785 0.000000 0.000000 0.000000 0.749093 -5.673561 6.404657 0.459209 -0.080294 0.317448 0.344058 1.106121 0.056470 0.000000 0.000000 0.000000 1.140248 -4.966480 0.830408 1.645606 1.686867 -0.895872 1.379621 -1.913013 0.821841 0.000000 0.000000 0.000000 
-2468.804932 984.595093 1060.286987 -0.322624 4.956184 -2.163297 1.842131 -1.806666 2.586624 1.538043 0.205915 -0.547863 1.635301 -0.372001 0.244038 -0.034994 1.738576 -0.053211 0.000000 0.000000 0.000000 0.812860 0.618038 -1.863466 0.383384 0.952155 2.380589 0.533296 -2.074039 1.547700 0.000000 0.000000 0.000000 2.796721 0.161854 -1.215969 -0.245857 -0.318601 -0.571290 -0.449524 -0.209670 -1.627216 0.000000 0.000000 0.000000 0.753999 -5.674408 6.408481 0.463011 -0.067388 0.317695 0.347870 1.118848 0.057050 0.000000 0.000000 0.000000 1.142869 -4.962041 0.836515 1.648754 1.694456 -0.900273 1.382741 -1.903736 0.822107 0.000000 0.000000 0.000000 
-2469.080566 984.487549 1060.295044 -0.333633 4.934090 -2.160857 1.845787 -1.804906 2.593083 1.541158 0.206119 -0.548590 1.638519 -0.371157 0.244158 -0.034429 1.747731 -0.057201 0.000000 0.000000 0.000000 0.801894 0.641654 -1.860929 0.378547 0.974000 2.372563 0.535072 -2.085795 1.551019 0.000000 0.000000 0.000000 2.791390 0.171145 -1.227435 -0.246492 -0.308798 -0.580422 -0.448518 -0.208775 -1.623741 0.000000 0.000000 0.000000 0.758426 -5.675066 6.413426 0.466562 -0.054885 0.316143 0.351217 1.131781 0.057409 0.000000 0.000000 0.000000 1.144990 -4.959705 0.842343 1.651811 1.706120 -0.903540 1.385451 -1.896719 0.822461 0.000000 0.000000 0.000000 
-2469.361084 984.383362 1060.302979 -0.344624 4.911738 -2.158271 1.849445 -1.801187 2.599154 1.544298 0.204488 -0.548950 1.641669 -0.369336 0.243996 -0.033733 1.756933 -0.061838 0.000000 0.000000 0.000000 0.791618 0.665230 -1.857446 0.373345 0.995844 2.362881 0.536638 -2.096871 1.553655 0.000000 0.000000 0.000000 2.785971 0.180584 -1.239076 -0.246925 -0.298864 -0.588810 -0.447334 -0.207725 -1.619653 0.000000 0.000000 0.000000 0.762811 -5.675675 6.418366 0.470101 -0.042435 0.314057 0.354495 1.144758 0.057735 0.000000 0.000000 0.000000 1.146987 -4.958487 0.847719 1.654971 1.720158 -0.906399 1.388072 -1.890964 0.822924 0.000000 0.000000 0.000000 
-2469.641602 984.280212 1060.308960 -0.355726 4.889728 -2.155810 1.853460 -1.798307 2.605415 1.547801 0.203850 -0.549368 1.645197 -0.368512 0.243802 -0.033343 1.766037 -0.064976 0.000000 0.000000 0.000000 0.780300 0.689085 -1.854923 0.368047 1.017823 2.352746 0.538013 -2.107600 1.555567 0.000000 0.000000 0.000000 2.780300 0.190291 -1.250420 -0.247324 -0.288584 -0.597451 -0.445810 -0.206107 -1.614454 0.000000 0.000000 0.000000 0.767448 -5.676209 6.423483 0.474046 -0.030991 0.311735 0.358002 1.158009 0.058137 0.000000 0.000000 0.000000 1.149303 -4.957708 0.853841 1.658540 1.734480 -0.910898 1.390991 -1.885763 0.823581 0.000000 0.000000 0.000000 
-2469.921631 984.174988 1060.312988 -0.366486 4.868156 -2.153615 1.857062 -1.795809 2.612783 1.550586 0.202999 -0.551492 1.648383 -0.367296 0.245113 -0.032940 1.774774 -0.068140 0.000000 0.000000 0.000000 0.770775 0.712622 -1.852294 0.361957 1.039756 2.339215 0.539445 -2.117216 1.558185 0.000000 0.000000 0.000000 2.776841 0.200015 -1.263487 -0.247442 -0.278811 -0.604301 -0.444113 -0.203244 -1.608954 0.000000 0.000000 0.000000 0.772145 -5.676635 6.429227 0.478234 -0.020474 0.309006 0.361618 1.171129 0.058598 0.000000 0.000000 0.000000 1.151394 -4.957419 0.861763 1.662003 1.748921 -0.918200 1.393677 -1.880983 0.824187 0.000000 0.000000 0.000000 
-2470.202881 984.069702 1060.316040 -0.376923 4.846671 -2.151320 1.860596 -1.792773 2.620025 1.553310 0.200871 -0.553489 1.651404 -0.364488 0.245759 -0.032758 1.781851 -0.069980 0.000000 0.000000 0.000000 0.762286 0.735887 -1.849387 0.355554 1.061571 2.324377 0.540870 -2.127434 1.560536 0.000000 0.000000 0.000000 2.773302 0.209541 -1.275815 -0.247478 -0.269164 -0.611061 -0.442133 -0.200475 -1.602379 0.000000 0.000000 0.000000 0.776950 -5.676838 6.435176 0.482675 -0.010560 0.305763 0.365377 1.184128 0.059131 0.000000 0.000000 0.000000 1.153328 -4.957440 0.870319 1.665377 1.763594 -0.926902 1.396215 -1.876211 0.824730 0.000000 0.000000 0.000000 
-2470.485107 983.971313 1060.318970 -0.387465 4.825175 -2.147921 1.864357 -1.790809 2.626136 1.556410 0.199940 -0.555436 1.654873 -0.362748 0.247006 -0.032506 1.790365 -0.072378 0.000000 0.000000 0.000000 0.752931 0.759009 -1.847559 0.349302 1.083134 2.309758 0.541885 -2.136427 1.561505 0.000000 0.000000 0.000000 2.768969 0.219319 -1.288372 -0.247552 -0.259186 -0.617623 -0.440495 -0.197270 -1.597189 0.000000 0.000000 0.000000 0.782205 -5.677592 6.439008 0.487272 -0.000144 0.303411 0.369247 1.198772 0.059573 0.000000 0.000000 0.000000 1.155664 -4.957226 0.877044 1.669053 1.777614 -0.935441 1.399159 -1.870355 0.825322 0.000000 0.000000 0.000000 
